<svg width="163" height="971" viewBox="0 0 163 971" fill="none" xmlns="http://www.w3.org/2000/svg">
<path fill-rule="evenodd" clip-rule="evenodd" d="M1058.02 480.526C1101.31 586.028 1118.51 726.802 1045.04 814.022C970.659 902.32 826.507 856.657 715.242 887.457C633.395 910.114 565.8 970.298 480.874 970.193C385.253 970.075 289.657 944.968 213.733 886.839C130.13 822.831 69.9708 733.357 39.7829 632.485C5.9975 519.593 -26.141 388.748 34.4165 287.659C94.4445 187.454 233.112 181.731 339.153 132.745C440.972 85.7102 535.148 -26.3181 642.289 6.85141C751.078 40.5313 752.386 198.343 827.508 283.935C895.794 361.738 1018.72 384.756 1058.02 480.526Z" fill="#F8B195" fill-opacity="0.3"/>
</svg>
