<svg width="1096" height="267" viewBox="0 0 1096 267" fill="none" xmlns="http://www.w3.org/2000/svg">
<path fill-rule="evenodd" clip-rule="evenodd" d="M1058.02 -223.474C1101.31 -117.972 1118.51 22.8018 1045.04 110.022C970.658 198.32 826.506 152.657 715.242 183.457C633.394 206.114 565.8 266.298 480.874 266.193C385.253 266.075 289.657 240.968 213.733 182.839C130.13 118.831 69.9705 29.3572 39.7825 -71.5147C5.99714 -184.407 -26.1414 -315.252 34.4161 -416.341C94.4441 -516.546 233.112 -522.269 339.153 -571.255C440.971 -618.29 535.148 -730.318 642.288 -697.149C751.077 -663.469 752.386 -505.657 827.508 -420.065C895.794 -342.262 1018.72 -319.244 1058.02 -223.474Z" fill="#355C7D" fill-opacity="0.3"/>
</svg>
