<svg width="377" height="854" viewBox="0 0 377 854" fill="none" xmlns="http://www.w3.org/2000/svg">
<path fill-rule="evenodd" clip-rule="evenodd" d="M343.688 422.778C381.787 515.619 396.915 639.499 332.262 716.252C266.811 793.953 139.958 753.77 42.0465 780.874C-29.9789 800.812 -89.4613 853.773 -164.195 853.681C-248.341 853.577 -332.465 831.483 -399.277 780.33C-472.847 724.003 -525.787 645.267 -552.352 556.501C-582.083 457.157 -610.364 342.015 -557.074 253.057C-504.25 164.878 -382.224 159.842 -288.909 116.734C-199.309 75.3437 -116.435 -23.2402 -22.1519 5.94866C73.5814 35.5867 74.7327 174.459 140.84 249.78C200.93 318.246 309.105 338.502 343.688 422.778Z" fill="#F8B195" fill-opacity="0.3"/>
</svg>
